<mxfile host="app.diagrams.net" modified="2024-01-27T14:53:24.471Z" agent="Mozilla/5.0 (Macintosh; Intel Mac OS X 10_15_7) AppleWebKit/605.1.15 (KHTML, like Gecko) Version/17.2 Safari/605.1.15" etag="fur00FYqaaxS_SXx4gGZ" version="23.0.2" type="github" pages="3">
  <diagram id="X_UXevi6lsKnUcApqdjO" name="Page-2">
    <mxGraphModel dx="1397" dy="802" grid="1" gridSize="10" guides="1" tooltips="1" connect="1" arrows="1" fold="1" page="1" pageScale="1" pageWidth="1169" pageHeight="827" math="0" shadow="0">
      <root>
        <mxCell id="0" />
        <mxCell id="1" parent="0" />
        <mxCell id="5DVTJejNJcmvx4P72fcE-1" value="&lt;b&gt;Support: (+)&lt;br&gt;Solution Space:&lt;br&gt;&amp;nbsp; -&amp;nbsp;&lt;/b&gt;&amp;nbsp;Generic responsibilities&lt;div&gt;&amp;nbsp; - Tailored to projects&lt;/div&gt;&lt;div&gt;&amp;nbsp; - Default ownership&lt;/div&gt;" style="shape=note;whiteSpace=wrap;html=1;backgroundOutline=1;darkOpacity=0.05;size=30;align=left;fillColor=#6BBD1A;strokeColor=#2D7600;fontColor=#ffffff;" vertex="1" parent="1">
          <mxGeometry x="310" y="270" width="190" height="70" as="geometry" />
        </mxCell>
        <mxCell id="5DVTJejNJcmvx4P72fcE-2" value="HF Ownership and Responsibility&amp;nbsp;" style="rounded=0;whiteSpace=wrap;html=1;" vertex="1" parent="1">
          <mxGeometry x="524.5" y="315" width="120" height="60" as="geometry" />
        </mxCell>
        <mxCell id="5DVTJejNJcmvx4P72fcE-3" value="&amp;nbsp; &amp;nbsp; &amp;nbsp; Target&amp;nbsp;" style="swimlane;whiteSpace=wrap;html=1;align=left;" vertex="1" parent="1">
          <mxGeometry x="81" y="240" width="200" height="210" as="geometry">
            <mxRectangle x="530" y="180" width="50" height="40" as="alternateBounds" />
          </mxGeometry>
        </mxCell>
        <mxCell id="5DVTJejNJcmvx4P72fcE-4" value="HF Requirements&amp;nbsp;" style="rounded=0;whiteSpace=wrap;html=1;" vertex="1" parent="5DVTJejNJcmvx4P72fcE-3">
          <mxGeometry x="40" y="30" width="120" height="60" as="geometry" />
        </mxCell>
        <mxCell id="5DVTJejNJcmvx4P72fcE-5" value="Product Development&amp;nbsp;" style="rounded=0;whiteSpace=wrap;html=1;" vertex="1" parent="5DVTJejNJcmvx4P72fcE-3">
          <mxGeometry x="40" y="140" width="120" height="60" as="geometry" />
        </mxCell>
        <mxCell id="5DVTJejNJcmvx4P72fcE-6" value="" style="endArrow=classic;html=1;rounded=0;exitX=0.5;exitY=1;exitDx=0;exitDy=0;entryX=0.5;entryY=0;entryDx=0;entryDy=0;" edge="1" parent="5DVTJejNJcmvx4P72fcE-3" source="5DVTJejNJcmvx4P72fcE-4" target="5DVTJejNJcmvx4P72fcE-5">
          <mxGeometry width="50" height="50" relative="1" as="geometry">
            <mxPoint x="80" y="200" as="sourcePoint" />
            <mxPoint x="130" y="150" as="targetPoint" />
          </mxGeometry>
        </mxCell>
        <mxCell id="5DVTJejNJcmvx4P72fcE-7" value="&lt;font style=&quot;font-size: 10px;&quot;&gt;Integration in&lt;/font&gt;" style="text;html=1;strokeColor=none;fillColor=none;align=center;verticalAlign=middle;whiteSpace=wrap;rounded=0;" vertex="1" parent="5DVTJejNJcmvx4P72fcE-3">
          <mxGeometry x="103" y="102" width="60" height="20" as="geometry" />
        </mxCell>
        <mxCell id="5DVTJejNJcmvx4P72fcE-8" value="&lt;b style=&quot;border-color: var(--border-color);&quot;&gt;Support: +/-&lt;br style=&quot;border-color: var(--border-color);&quot;&gt;Solution Space:&lt;br style=&quot;border-color: var(--border-color);&quot;&gt;&amp;nbsp;&lt;/b&gt;&lt;span style=&quot;border-color: var(--border-color);&quot;&gt; - assign to critical roles&lt;div&gt;&amp;nbsp; - assign to supporting roles&lt;/div&gt;&lt;div&gt;&amp;nbsp; - everybody&#39;s responsibility&lt;/div&gt;&lt;/span&gt;" style="shape=note;whiteSpace=wrap;html=1;backgroundOutline=1;darkOpacity=0.05;size=30;align=left;fillColor=#fff2cc;strokeColor=#d6b656;" vertex="1" parent="1">
          <mxGeometry x="670" y="259" width="180" height="80" as="geometry" />
        </mxCell>
        <mxCell id="5DVTJejNJcmvx4P72fcE-9" value="(P1) clarity positively impacts" style="text;html=1;align=center;verticalAlign=middle;resizable=0;points=[];autosize=1;strokeColor=none;fillColor=none;" vertex="1" parent="1">
          <mxGeometry x="301" y="240" width="180" height="30" as="geometry" />
        </mxCell>
        <mxCell id="5DVTJejNJcmvx4P72fcE-10" value="(P2) required" style="text;html=1;align=center;verticalAlign=middle;resizable=0;points=[];autosize=1;strokeColor=none;fillColor=none;" vertex="1" parent="1">
          <mxGeometry x="690" y="232" width="90" height="30" as="geometry" />
        </mxCell>
        <mxCell id="5DVTJejNJcmvx4P72fcE-11" value="&lt;b&gt;Support: (+)&lt;br&gt;Solution Space:&lt;/b&gt;&amp;nbsp;&lt;br&gt;&amp;nbsp;- Separated or integrated HF workstream" style="shape=note;whiteSpace=wrap;html=1;backgroundOutline=1;darkOpacity=0.05;size=30;align=left;fillColor=#6BBD1A;strokeColor=#2D7600;fontColor=#ffffff;" vertex="1" parent="1">
          <mxGeometry x="270" y="1041" width="180" height="70" as="geometry" />
        </mxCell>
        <mxCell id="5DVTJejNJcmvx4P72fcE-12" value="&amp;nbsp; &amp;nbsp; &amp;nbsp; Target&amp;nbsp;" style="swimlane;whiteSpace=wrap;html=1;align=left;" vertex="1" parent="1">
          <mxGeometry x="484.5" y="1011" width="200" height="210" as="geometry">
            <mxRectangle x="530" y="180" width="50" height="40" as="alternateBounds" />
          </mxGeometry>
        </mxCell>
        <mxCell id="5DVTJejNJcmvx4P72fcE-13" value="HF Requirements&amp;nbsp;" style="rounded=0;whiteSpace=wrap;html=1;" vertex="1" parent="5DVTJejNJcmvx4P72fcE-12">
          <mxGeometry x="40" y="30" width="120" height="60" as="geometry" />
        </mxCell>
        <mxCell id="5DVTJejNJcmvx4P72fcE-14" value="Product Development&amp;nbsp;" style="rounded=0;whiteSpace=wrap;html=1;" vertex="1" parent="5DVTJejNJcmvx4P72fcE-12">
          <mxGeometry x="40" y="140" width="120" height="60" as="geometry" />
        </mxCell>
        <mxCell id="5DVTJejNJcmvx4P72fcE-15" value="" style="endArrow=classic;html=1;rounded=0;exitX=0.5;exitY=1;exitDx=0;exitDy=0;entryX=0.5;entryY=0;entryDx=0;entryDy=0;" edge="1" parent="5DVTJejNJcmvx4P72fcE-12" source="5DVTJejNJcmvx4P72fcE-13" target="5DVTJejNJcmvx4P72fcE-14">
          <mxGeometry width="50" height="50" relative="1" as="geometry">
            <mxPoint x="80" y="200" as="sourcePoint" />
            <mxPoint x="130" y="150" as="targetPoint" />
          </mxGeometry>
        </mxCell>
        <mxCell id="5DVTJejNJcmvx4P72fcE-16" value="&lt;font style=&quot;font-size: 10px;&quot;&gt;Integration in&lt;/font&gt;" style="text;html=1;strokeColor=none;fillColor=none;align=center;verticalAlign=middle;whiteSpace=wrap;rounded=0;" vertex="1" parent="5DVTJejNJcmvx4P72fcE-12">
          <mxGeometry x="103" y="102" width="60" height="20" as="geometry" />
        </mxCell>
        <mxCell id="5DVTJejNJcmvx4P72fcE-17" value="Life Cycle Model for HF Req" style="rounded=0;whiteSpace=wrap;html=1;" vertex="1" parent="1">
          <mxGeometry x="1000" y="1035" width="120" height="60" as="geometry" />
        </mxCell>
        <mxCell id="5DVTJejNJcmvx4P72fcE-18" value="" style="endArrow=classic;html=1;rounded=0;exitX=0;exitY=0.5;exitDx=0;exitDy=0;entryX=1;entryY=0.25;entryDx=0;entryDy=0;" edge="1" parent="1" source="5DVTJejNJcmvx4P72fcE-17" target="5DVTJejNJcmvx4P72fcE-12">
          <mxGeometry width="50" height="50" relative="1" as="geometry">
            <mxPoint x="581" y="1180" as="sourcePoint" />
            <mxPoint x="711" y="1100" as="targetPoint" />
          </mxGeometry>
        </mxCell>
        <mxCell id="5DVTJejNJcmvx4P72fcE-19" value="&lt;b style=&quot;border-color: var(--border-color); caret-color: rgb(255, 255, 255);&quot;&gt;Support: (+)&lt;br style=&quot;border-color: var(--border-color);&quot;&gt;Solution Space:&lt;br style=&quot;border-color: var(--border-color);&quot;&gt;&amp;nbsp;-&amp;nbsp;&lt;/b&gt;&amp;nbsp;rely on agile methods&lt;div style=&quot;border-color: var(--border-color); caret-color: rgb(255, 255, 255);&quot;&gt;&amp;nbsp; - more than one lifecycle model&lt;/div&gt;&lt;div style=&quot;border-color: var(--border-color); caret-color: rgb(255, 255, 255);&quot;&gt;&amp;nbsp; - short sprints vs long iterations&lt;/div&gt;" style="shape=note;whiteSpace=wrap;html=1;backgroundOutline=1;darkOpacity=0.05;size=30;align=left;fillColor=#60a917;strokeColor=#2D7600;fontColor=#ffffff;" vertex="1" parent="1">
          <mxGeometry x="757" y="980" width="206" height="80" as="geometry" />
        </mxCell>
        <mxCell id="5DVTJejNJcmvx4P72fcE-20" value="Decomposition of HF Req." style="rounded=0;whiteSpace=wrap;html=1;" vertex="1" parent="1">
          <mxGeometry x="1000" y="1170" width="120" height="60" as="geometry" />
        </mxCell>
        <mxCell id="5DVTJejNJcmvx4P72fcE-21" value="" style="endArrow=classic;html=1;rounded=0;" edge="1" parent="1">
          <mxGeometry width="50" height="50" relative="1" as="geometry">
            <mxPoint x="1000" y="1200" as="sourcePoint" />
            <mxPoint x="684.5" y="1199.78" as="targetPoint" />
          </mxGeometry>
        </mxCell>
        <mxCell id="5DVTJejNJcmvx4P72fcE-22" value="(P7) positively impacts" style="text;html=1;align=center;verticalAlign=middle;resizable=0;points=[];autosize=1;strokeColor=none;fillColor=none;" vertex="1" parent="1">
          <mxGeometry x="281" y="1011" width="140" height="30" as="geometry" />
        </mxCell>
        <mxCell id="5DVTJejNJcmvx4P72fcE-23" value="(P6) strength positively impacts" style="text;html=1;align=center;verticalAlign=middle;resizable=0;points=[];autosize=1;strokeColor=none;fillColor=none;" vertex="1" parent="1">
          <mxGeometry x="747" y="950" width="190" height="30" as="geometry" />
        </mxCell>
        <mxCell id="5DVTJejNJcmvx4P72fcE-24" value="" style="endArrow=classic;html=1;rounded=0;exitX=1;exitY=0.5;exitDx=0;exitDy=0;entryX=0;entryY=0.5;entryDx=0;entryDy=0;" edge="1" parent="1" target="5DVTJejNJcmvx4P72fcE-12">
          <mxGeometry width="50" height="50" relative="1" as="geometry">
            <mxPoint x="241" y="1115" as="sourcePoint" />
            <mxPoint x="631" y="1110" as="targetPoint" />
          </mxGeometry>
        </mxCell>
        <mxCell id="5DVTJejNJcmvx4P72fcE-25" value="(P8) clarity positively impacts" style="text;html=1;align=center;verticalAlign=middle;resizable=0;points=[];autosize=1;strokeColor=none;fillColor=none;" vertex="1" parent="1">
          <mxGeometry x="752" y="1098" width="180" height="30" as="geometry" />
        </mxCell>
        <mxCell id="5DVTJejNJcmvx4P72fcE-26" value="&lt;b&gt;Support: (+)&lt;br&gt;Solution Space:&lt;br&gt;&amp;nbsp;&lt;/b&gt;&amp;nbsp;- Explicit plan for HF or not end note" style="shape=note;whiteSpace=wrap;html=1;backgroundOutline=1;darkOpacity=0.05;size=30;align=left;fillColor=#6BBD1A;strokeColor=#2D7600;fontColor=#ffffff;" vertex="1" parent="1">
          <mxGeometry x="757" y="1125" width="190" height="70" as="geometry" />
        </mxCell>
        <mxCell id="5DVTJejNJcmvx4P72fcE-27" value="&amp;nbsp; &amp;nbsp; &amp;nbsp; Workstream" style="swimlane;whiteSpace=wrap;html=1;align=left;" vertex="1" parent="1">
          <mxGeometry x="41" y="1010" width="200" height="210" as="geometry">
            <mxRectangle x="530" y="180" width="50" height="40" as="alternateBounds" />
          </mxGeometry>
        </mxCell>
        <mxCell id="5DVTJejNJcmvx4P72fcE-28" value="HF Workstream&amp;nbsp;" style="rounded=0;whiteSpace=wrap;html=1;" vertex="1" parent="5DVTJejNJcmvx4P72fcE-27">
          <mxGeometry x="40" y="30" width="120" height="60" as="geometry" />
        </mxCell>
        <mxCell id="5DVTJejNJcmvx4P72fcE-29" value="Other Workstream" style="rounded=0;whiteSpace=wrap;html=1;" vertex="1" parent="5DVTJejNJcmvx4P72fcE-27">
          <mxGeometry x="40" y="140" width="120" height="60" as="geometry" />
        </mxCell>
        <mxCell id="5DVTJejNJcmvx4P72fcE-30" value="" style="endArrow=classic;html=1;rounded=0;exitX=0.5;exitY=1;exitDx=0;exitDy=0;entryX=0.5;entryY=0;entryDx=0;entryDy=0;" edge="1" parent="5DVTJejNJcmvx4P72fcE-27" source="5DVTJejNJcmvx4P72fcE-28" target="5DVTJejNJcmvx4P72fcE-29">
          <mxGeometry width="50" height="50" relative="1" as="geometry">
            <mxPoint x="80" y="200" as="sourcePoint" />
            <mxPoint x="130" y="150" as="targetPoint" />
          </mxGeometry>
        </mxCell>
        <mxCell id="5DVTJejNJcmvx4P72fcE-31" value="&lt;font style=&quot;font-size: 10px;&quot;&gt;clearly defined in relation to&lt;/font&gt;" style="text;html=1;strokeColor=none;fillColor=none;align=center;verticalAlign=middle;whiteSpace=wrap;rounded=0;" vertex="1" parent="5DVTJejNJcmvx4P72fcE-27">
          <mxGeometry x="98" y="104" width="77" height="20" as="geometry" />
        </mxCell>
        <mxCell id="5DVTJejNJcmvx4P72fcE-32" value="&lt;b&gt;Support: (+)&lt;br&gt;Solution Space:&lt;br&gt;&amp;nbsp; - S&lt;/b&gt;pecialized structure for HF req&lt;div&gt;&amp;nbsp; - Generic req structure&lt;/div&gt;&lt;div&gt;&amp;nbsp; - Labeling of HF req&lt;/div&gt;" style="shape=note;whiteSpace=wrap;html=1;backgroundOutline=1;darkOpacity=0.05;size=30;align=left;fillColor=#6BBD1A;strokeColor=#2D7600;fontColor=#ffffff;" vertex="1" parent="1">
          <mxGeometry x="190" y="656" width="190" height="70" as="geometry" />
        </mxCell>
        <mxCell id="5DVTJejNJcmvx4P72fcE-33" value="HF Req. Structure" style="rounded=0;whiteSpace=wrap;html=1;" vertex="1" parent="1">
          <mxGeometry x="40" y="701" width="120" height="60" as="geometry" />
        </mxCell>
        <mxCell id="5DVTJejNJcmvx4P72fcE-34" value="&amp;nbsp; &amp;nbsp; &amp;nbsp; Target&amp;nbsp;" style="swimlane;whiteSpace=wrap;html=1;align=left;" vertex="1" parent="1">
          <mxGeometry x="430" y="626" width="200" height="210" as="geometry">
            <mxRectangle x="530" y="180" width="50" height="40" as="alternateBounds" />
          </mxGeometry>
        </mxCell>
        <mxCell id="5DVTJejNJcmvx4P72fcE-35" value="HF Requirements&amp;nbsp;" style="rounded=0;whiteSpace=wrap;html=1;" vertex="1" parent="5DVTJejNJcmvx4P72fcE-34">
          <mxGeometry x="40" y="30" width="120" height="60" as="geometry" />
        </mxCell>
        <mxCell id="5DVTJejNJcmvx4P72fcE-36" value="Product Development&amp;nbsp;" style="rounded=0;whiteSpace=wrap;html=1;" vertex="1" parent="5DVTJejNJcmvx4P72fcE-34">
          <mxGeometry x="40" y="140" width="120" height="60" as="geometry" />
        </mxCell>
        <mxCell id="5DVTJejNJcmvx4P72fcE-37" value="" style="endArrow=classic;html=1;rounded=0;exitX=0.5;exitY=1;exitDx=0;exitDy=0;entryX=0.5;entryY=0;entryDx=0;entryDy=0;" edge="1" parent="5DVTJejNJcmvx4P72fcE-34" source="5DVTJejNJcmvx4P72fcE-35" target="5DVTJejNJcmvx4P72fcE-36">
          <mxGeometry width="50" height="50" relative="1" as="geometry">
            <mxPoint x="80" y="200" as="sourcePoint" />
            <mxPoint x="130" y="150" as="targetPoint" />
          </mxGeometry>
        </mxCell>
        <mxCell id="5DVTJejNJcmvx4P72fcE-38" value="&lt;font style=&quot;font-size: 10px;&quot;&gt;integration in&lt;/font&gt;" style="text;html=1;strokeColor=none;fillColor=none;align=center;verticalAlign=middle;whiteSpace=wrap;rounded=0;" vertex="1" parent="5DVTJejNJcmvx4P72fcE-34">
          <mxGeometry x="103" y="102" width="60" height="20" as="geometry" />
        </mxCell>
        <mxCell id="5DVTJejNJcmvx4P72fcE-39" value="HF Req Tracebility&amp;nbsp;" style="rounded=0;whiteSpace=wrap;html=1;" vertex="1" parent="1">
          <mxGeometry x="1000" y="644" width="120" height="60" as="geometry" />
        </mxCell>
        <mxCell id="5DVTJejNJcmvx4P72fcE-40" value="" style="endArrow=classic;html=1;rounded=0;exitX=0;exitY=0.5;exitDx=0;exitDy=0;entryX=1;entryY=0.25;entryDx=0;entryDy=0;" edge="1" parent="1" source="5DVTJejNJcmvx4P72fcE-39">
          <mxGeometry width="50" height="50" relative="1" as="geometry">
            <mxPoint x="500" y="789" as="sourcePoint" />
            <mxPoint x="630" y="671.5" as="targetPoint" />
          </mxGeometry>
        </mxCell>
        <mxCell id="5DVTJejNJcmvx4P72fcE-41" value="&lt;b style=&quot;border-color: var(--border-color);&quot;&gt;Support: +/-&lt;br style=&quot;border-color: var(--border-color);&quot;&gt;Solution Space:&lt;br style=&quot;border-color: var(--border-color);&quot;&gt;&amp;nbsp;&lt;/b&gt;&lt;span style=&quot;border-color: var(--border-color);&quot;&gt; - P&lt;/span&gt;rovide specific traceability model for HF&lt;div style=&quot;border-color: var(--border-color);&quot;&gt;&amp;nbsp; - Integrated in general traceability model&lt;/div&gt;&lt;div style=&quot;border-color: var(--border-color);&quot;&gt;&amp;nbsp; - Do not use traceability for product development&lt;/div&gt;" style="shape=note;whiteSpace=wrap;html=1;backgroundOutline=1;darkOpacity=0.05;size=30;align=left;fillColor=#fff2cc;strokeColor=#d6b656;" vertex="1" parent="1">
          <mxGeometry x="679" y="587" width="270" height="80" as="geometry" />
        </mxCell>
        <mxCell id="5DVTJejNJcmvx4P72fcE-42" value="Decomposition of HF Req." style="rounded=0;whiteSpace=wrap;html=1;" vertex="1" parent="1">
          <mxGeometry x="1000" y="788" width="120" height="60" as="geometry" />
        </mxCell>
        <mxCell id="5DVTJejNJcmvx4P72fcE-43" value="" style="endArrow=classic;html=1;rounded=0;exitX=0;exitY=0.5;exitDx=0;exitDy=0;entryX=1;entryY=0.25;entryDx=0;entryDy=0;" edge="1" parent="1" source="5DVTJejNJcmvx4P72fcE-42">
          <mxGeometry width="50" height="50" relative="1" as="geometry">
            <mxPoint x="500" y="933" as="sourcePoint" />
            <mxPoint x="630" y="815" as="targetPoint" />
          </mxGeometry>
        </mxCell>
        <mxCell id="5DVTJejNJcmvx4P72fcE-44" value="&lt;b style=&quot;border-color: var(--border-color);&quot;&gt;Support: +/-&lt;br style=&quot;border-color: var(--border-color);&quot;&gt;Solution Space: &lt;br&gt;&amp;nbsp; - &lt;/b&gt;&lt;span style=&quot;border-color: var(--border-color);&quot;&gt;Decompose top-down&lt;div&gt;&amp;nbsp; - HF requirements on the highest level decomposed into system requirements&lt;/div&gt;&lt;div&gt;&amp;nbsp; - Treat as emergent property&amp;nbsp;&lt;/div&gt;&lt;/span&gt;" style="shape=note;whiteSpace=wrap;html=1;backgroundOutline=1;darkOpacity=0.05;size=30;align=left;fillColor=#fff2cc;strokeColor=#d6b656;" vertex="1" parent="1">
          <mxGeometry x="679" y="720" width="287" height="90" as="geometry" />
        </mxCell>
        <mxCell id="5DVTJejNJcmvx4P72fcE-45" value="(P3) clarity positively impacts" style="text;html=1;align=center;verticalAlign=middle;resizable=0;points=[];autosize=1;strokeColor=none;fillColor=none;" vertex="1" parent="1">
          <mxGeometry x="180" y="627" width="180" height="30" as="geometry" />
        </mxCell>
        <mxCell id="5DVTJejNJcmvx4P72fcE-46" value="(P4) clarity positively impacts" style="text;html=1;align=center;verticalAlign=middle;resizable=0;points=[];autosize=1;strokeColor=none;fillColor=none;" vertex="1" parent="1">
          <mxGeometry x="720" y="560" width="180" height="30" as="geometry" />
        </mxCell>
        <mxCell id="5DVTJejNJcmvx4P72fcE-47" value="" style="endArrow=classic;html=1;rounded=0;exitX=1;exitY=0.5;exitDx=0;exitDy=0;entryX=0;entryY=0.5;entryDx=0;entryDy=0;" edge="1" parent="1" source="5DVTJejNJcmvx4P72fcE-33" target="5DVTJejNJcmvx4P72fcE-34">
          <mxGeometry width="50" height="50" relative="1" as="geometry">
            <mxPoint x="500" y="776" as="sourcePoint" />
            <mxPoint x="550" y="726" as="targetPoint" />
          </mxGeometry>
        </mxCell>
        <mxCell id="5DVTJejNJcmvx4P72fcE-48" value="(P5) positively impacts" style="text;html=1;align=center;verticalAlign=middle;resizable=0;points=[];autosize=1;strokeColor=none;fillColor=none;" vertex="1" parent="1">
          <mxGeometry x="721" y="694" width="140" height="30" as="geometry" />
        </mxCell>
        <mxCell id="5DVTJejNJcmvx4P72fcE-49" value="&amp;nbsp; &amp;nbsp; &amp;nbsp; Allocation of HF Expertise&amp;nbsp;" style="swimlane;whiteSpace=wrap;html=1;align=left;" vertex="1" parent="1">
          <mxGeometry x="890" y="240" width="200" height="210" as="geometry">
            <mxRectangle x="530" y="180" width="50" height="40" as="alternateBounds" />
          </mxGeometry>
        </mxCell>
        <mxCell id="5DVTJejNJcmvx4P72fcE-50" value="HF Expertise" style="rounded=0;whiteSpace=wrap;html=1;" vertex="1" parent="5DVTJejNJcmvx4P72fcE-49">
          <mxGeometry x="40" y="30" width="120" height="60" as="geometry" />
        </mxCell>
        <mxCell id="5DVTJejNJcmvx4P72fcE-51" value="Critical Roles" style="rounded=0;whiteSpace=wrap;html=1;" vertex="1" parent="5DVTJejNJcmvx4P72fcE-49">
          <mxGeometry x="40" y="140" width="120" height="60" as="geometry" />
        </mxCell>
        <mxCell id="5DVTJejNJcmvx4P72fcE-52" value="" style="endArrow=classic;html=1;rounded=0;exitX=0.5;exitY=1;exitDx=0;exitDy=0;entryX=0.5;entryY=0;entryDx=0;entryDy=0;" edge="1" parent="5DVTJejNJcmvx4P72fcE-49" source="5DVTJejNJcmvx4P72fcE-50" target="5DVTJejNJcmvx4P72fcE-51">
          <mxGeometry width="50" height="50" relative="1" as="geometry">
            <mxPoint x="80" y="200" as="sourcePoint" />
            <mxPoint x="130" y="150" as="targetPoint" />
          </mxGeometry>
        </mxCell>
        <mxCell id="5DVTJejNJcmvx4P72fcE-53" value="&lt;font style=&quot;font-size: 10px;&quot;&gt;assigned to&lt;/font&gt;" style="text;html=1;strokeColor=none;fillColor=none;align=center;verticalAlign=middle;whiteSpace=wrap;rounded=0;" vertex="1" parent="5DVTJejNJcmvx4P72fcE-49">
          <mxGeometry x="103" y="102" width="60" height="20" as="geometry" />
        </mxCell>
        <mxCell id="5DVTJejNJcmvx4P72fcE-54" value="" style="endArrow=classic;html=1;rounded=0;exitX=0;exitY=0.5;exitDx=0;exitDy=0;dashed=1;dashPattern=12 12;entryX=1;entryY=0.5;entryDx=0;entryDy=0;" edge="1" parent="1" source="5DVTJejNJcmvx4P72fcE-49" target="5DVTJejNJcmvx4P72fcE-2">
          <mxGeometry width="50" height="50" relative="1" as="geometry">
            <mxPoint x="790" y="350" as="sourcePoint" />
            <mxPoint x="650" y="345" as="targetPoint" />
          </mxGeometry>
        </mxCell>
        <mxCell id="5DVTJejNJcmvx4P72fcE-55" value="" style="endArrow=classic;html=1;rounded=0;entryX=1;entryY=0.5;entryDx=0;entryDy=0;exitX=0;exitY=0.5;exitDx=0;exitDy=0;" edge="1" parent="1" source="5DVTJejNJcmvx4P72fcE-2" target="5DVTJejNJcmvx4P72fcE-3">
          <mxGeometry width="50" height="50" relative="1" as="geometry">
            <mxPoint x="560" y="310" as="sourcePoint" />
            <mxPoint x="610" y="260" as="targetPoint" />
          </mxGeometry>
        </mxCell>
      </root>
    </mxGraphModel>
  </diagram>
  <diagram name="Page-1" id="ccUVzqAUSEyJ6sIZD1O4">
    <mxGraphModel dx="1746" dy="1003" grid="1" gridSize="10" guides="1" tooltips="1" connect="1" arrows="1" fold="1" page="1" pageScale="1" pageWidth="1169" pageHeight="827" math="0" shadow="0">
      <root>
        <mxCell id="0" />
        <mxCell id="1" parent="0" />
        <mxCell id="9daL2sqV7IDUxvltfh16-6" value="HF Ownership and Responsibility&amp;nbsp;" style="rounded=0;whiteSpace=wrap;html=1;fillColor=#e1d5e7;strokeColor=#9673a6;" vertex="1" parent="1">
          <mxGeometry x="470" y="380" width="120" height="60" as="geometry" />
        </mxCell>
        <mxCell id="9daL2sqV7IDUxvltfh16-96" value="" style="endArrow=classic;html=1;rounded=0;" edge="1" parent="1">
          <mxGeometry width="50" height="50" relative="1" as="geometry">
            <mxPoint x="540" y="990" as="sourcePoint" />
            <mxPoint x="540" y="836" as="targetPoint" />
          </mxGeometry>
        </mxCell>
        <mxCell id="9daL2sqV7IDUxvltfh16-98" value="Plan for Review &amp;amp; Reflection &amp;nbsp;" style="rounded=0;whiteSpace=wrap;html=1;fillColor=#dae8fc;strokeColor=#6c8ebf;" vertex="1" parent="1">
          <mxGeometry x="70" y="698" width="120" height="60" as="geometry" />
        </mxCell>
        <mxCell id="9daL2sqV7IDUxvltfh16-99" value="" style="endArrow=classic;html=1;rounded=0;exitX=1;exitY=0.5;exitDx=0;exitDy=0;" edge="1" parent="1" source="9daL2sqV7IDUxvltfh16-98">
          <mxGeometry width="50" height="50" relative="1" as="geometry">
            <mxPoint x="1000" y="1168" as="sourcePoint" />
            <mxPoint x="430" y="728" as="targetPoint" />
          </mxGeometry>
        </mxCell>
        <mxCell id="9daL2sqV7IDUxvltfh16-102" value="" style="endArrow=classic;html=1;rounded=0;" edge="1" parent="1">
          <mxGeometry width="50" height="50" relative="1" as="geometry">
            <mxPoint x="450" y="510" as="sourcePoint" />
            <mxPoint x="450" y="620" as="targetPoint" />
          </mxGeometry>
        </mxCell>
        <mxCell id="9daL2sqV7IDUxvltfh16-105" value="&amp;nbsp; &amp;nbsp; &amp;nbsp; Workstream" style="swimlane;whiteSpace=wrap;html=1;align=left;fillColor=#dae8fc;strokeColor=#6c8ebf;" vertex="1" parent="1">
          <mxGeometry x="60" y="390" width="200" height="210" as="geometry">
            <mxRectangle x="530" y="180" width="50" height="40" as="alternateBounds" />
          </mxGeometry>
        </mxCell>
        <mxCell id="9daL2sqV7IDUxvltfh16-106" value="HF Workstream&amp;nbsp;" style="rounded=0;whiteSpace=wrap;html=1;fillColor=#dae8fc;strokeColor=#6c8ebf;" vertex="1" parent="9daL2sqV7IDUxvltfh16-105">
          <mxGeometry x="40" y="30" width="120" height="60" as="geometry" />
        </mxCell>
        <mxCell id="9daL2sqV7IDUxvltfh16-107" value="Other Workstream" style="rounded=0;whiteSpace=wrap;html=1;fillColor=#dae8fc;strokeColor=#6c8ebf;" vertex="1" parent="9daL2sqV7IDUxvltfh16-105">
          <mxGeometry x="40" y="140" width="120" height="60" as="geometry" />
        </mxCell>
        <mxCell id="9daL2sqV7IDUxvltfh16-108" value="" style="endArrow=classic;html=1;rounded=0;exitX=0.5;exitY=1;exitDx=0;exitDy=0;entryX=0.5;entryY=0;entryDx=0;entryDy=0;" edge="1" parent="9daL2sqV7IDUxvltfh16-105" source="9daL2sqV7IDUxvltfh16-106" target="9daL2sqV7IDUxvltfh16-107">
          <mxGeometry width="50" height="50" relative="1" as="geometry">
            <mxPoint x="80" y="200" as="sourcePoint" />
            <mxPoint x="130" y="150" as="targetPoint" />
          </mxGeometry>
        </mxCell>
        <mxCell id="9daL2sqV7IDUxvltfh16-109" value="&lt;font style=&quot;font-size: 10px;&quot;&gt;clearly defined in relation to&lt;/font&gt;" style="text;html=1;strokeColor=none;fillColor=none;align=center;verticalAlign=middle;whiteSpace=wrap;rounded=0;" vertex="1" parent="9daL2sqV7IDUxvltfh16-105">
          <mxGeometry x="98" y="104" width="77" height="20" as="geometry" />
        </mxCell>
        <mxCell id="9daL2sqV7IDUxvltfh16-128" value="Decomposition of HF Req.&amp;nbsp;" style="rounded=0;whiteSpace=wrap;html=1;fillColor=#f8cecc;strokeColor=#b85450;" vertex="1" parent="1">
          <mxGeometry x="1000" y="960" width="120" height="60" as="geometry" />
        </mxCell>
        <mxCell id="9daL2sqV7IDUxvltfh16-129" value="&amp;nbsp; &amp;nbsp; &amp;nbsp; Target&amp;nbsp;" style="swimlane;whiteSpace=wrap;html=1;align=left;" vertex="1" parent="1">
          <mxGeometry x="430" y="626" width="200" height="210" as="geometry">
            <mxRectangle x="530" y="180" width="50" height="40" as="alternateBounds" />
          </mxGeometry>
        </mxCell>
        <mxCell id="9daL2sqV7IDUxvltfh16-130" value="HF Requirements&amp;nbsp;" style="rounded=0;whiteSpace=wrap;html=1;" vertex="1" parent="9daL2sqV7IDUxvltfh16-129">
          <mxGeometry x="40" y="30" width="120" height="60" as="geometry" />
        </mxCell>
        <mxCell id="9daL2sqV7IDUxvltfh16-131" value="Product Development&amp;nbsp;" style="rounded=0;whiteSpace=wrap;html=1;" vertex="1" parent="9daL2sqV7IDUxvltfh16-129">
          <mxGeometry x="40" y="140" width="120" height="60" as="geometry" />
        </mxCell>
        <mxCell id="9daL2sqV7IDUxvltfh16-132" value="" style="endArrow=classic;html=1;rounded=0;exitX=0.5;exitY=1;exitDx=0;exitDy=0;entryX=0.5;entryY=0;entryDx=0;entryDy=0;" edge="1" parent="9daL2sqV7IDUxvltfh16-129" source="9daL2sqV7IDUxvltfh16-130" target="9daL2sqV7IDUxvltfh16-131">
          <mxGeometry width="50" height="50" relative="1" as="geometry">
            <mxPoint x="80" y="200" as="sourcePoint" />
            <mxPoint x="130" y="150" as="targetPoint" />
          </mxGeometry>
        </mxCell>
        <mxCell id="9daL2sqV7IDUxvltfh16-133" value="&lt;font style=&quot;font-size: 10px;&quot;&gt;integration in&lt;/font&gt;" style="text;html=1;strokeColor=none;fillColor=none;align=center;verticalAlign=middle;whiteSpace=wrap;rounded=0;" vertex="1" parent="9daL2sqV7IDUxvltfh16-129">
          <mxGeometry x="103" y="102" width="60" height="20" as="geometry" />
        </mxCell>
        <mxCell id="9daL2sqV7IDUxvltfh16-134" value="HF Req. Structure" style="rounded=0;whiteSpace=wrap;html=1;fillColor=#f8cecc;strokeColor=#b85450;" vertex="1" parent="1">
          <mxGeometry x="1000" y="644" width="120" height="60" as="geometry" />
        </mxCell>
        <mxCell id="9daL2sqV7IDUxvltfh16-135" value="" style="endArrow=classic;html=1;rounded=0;exitX=0;exitY=0.5;exitDx=0;exitDy=0;entryX=1;entryY=0.25;entryDx=0;entryDy=0;" edge="1" parent="1" source="9daL2sqV7IDUxvltfh16-134">
          <mxGeometry width="50" height="50" relative="1" as="geometry">
            <mxPoint x="500" y="789" as="sourcePoint" />
            <mxPoint x="630" y="671.5" as="targetPoint" />
          </mxGeometry>
        </mxCell>
        <mxCell id="9daL2sqV7IDUxvltfh16-137" value="HF Req Tracebility" style="rounded=0;whiteSpace=wrap;html=1;fillColor=#f8cecc;strokeColor=#b85450;" vertex="1" parent="1">
          <mxGeometry x="1000" y="788" width="120" height="60" as="geometry" />
        </mxCell>
        <mxCell id="9daL2sqV7IDUxvltfh16-138" value="" style="endArrow=classic;html=1;rounded=0;exitX=0;exitY=0.5;exitDx=0;exitDy=0;entryX=1;entryY=0.25;entryDx=0;entryDy=0;" edge="1" parent="1" source="9daL2sqV7IDUxvltfh16-137">
          <mxGeometry width="50" height="50" relative="1" as="geometry">
            <mxPoint x="500" y="933" as="sourcePoint" />
            <mxPoint x="630" y="815" as="targetPoint" />
          </mxGeometry>
        </mxCell>
        <mxCell id="9daL2sqV7IDUxvltfh16-142" value="" style="endArrow=classic;html=1;rounded=0;" edge="1" parent="1">
          <mxGeometry width="50" height="50" relative="1" as="geometry">
            <mxPoint x="610" y="990" as="sourcePoint" />
            <mxPoint x="610" y="840" as="targetPoint" />
          </mxGeometry>
        </mxCell>
        <mxCell id="9daL2sqV7IDUxvltfh16-144" value="&amp;nbsp; &amp;nbsp; &amp;nbsp; Allocation of HF Expertise&amp;nbsp;" style="swimlane;whiteSpace=wrap;html=1;align=left;fillColor=#e1d5e7;strokeColor=#9673a6;" vertex="1" parent="1">
          <mxGeometry x="920" y="330" width="200" height="210" as="geometry">
            <mxRectangle x="530" y="180" width="50" height="40" as="alternateBounds" />
          </mxGeometry>
        </mxCell>
        <mxCell id="9daL2sqV7IDUxvltfh16-145" value="HF Expertise" style="rounded=0;whiteSpace=wrap;html=1;fillColor=#e1d5e7;strokeColor=#9673a6;" vertex="1" parent="9daL2sqV7IDUxvltfh16-144">
          <mxGeometry x="40" y="30" width="120" height="60" as="geometry" />
        </mxCell>
        <mxCell id="9daL2sqV7IDUxvltfh16-146" value="Critical Roles" style="rounded=0;whiteSpace=wrap;html=1;fillColor=#e1d5e7;strokeColor=#9673a6;" vertex="1" parent="9daL2sqV7IDUxvltfh16-144">
          <mxGeometry x="40" y="140" width="120" height="60" as="geometry" />
        </mxCell>
        <mxCell id="9daL2sqV7IDUxvltfh16-147" value="" style="endArrow=classic;html=1;rounded=0;exitX=0.5;exitY=1;exitDx=0;exitDy=0;entryX=0.5;entryY=0;entryDx=0;entryDy=0;" edge="1" parent="9daL2sqV7IDUxvltfh16-144" source="9daL2sqV7IDUxvltfh16-145" target="9daL2sqV7IDUxvltfh16-146">
          <mxGeometry width="50" height="50" relative="1" as="geometry">
            <mxPoint x="80" y="200" as="sourcePoint" />
            <mxPoint x="130" y="150" as="targetPoint" />
          </mxGeometry>
        </mxCell>
        <mxCell id="9daL2sqV7IDUxvltfh16-148" value="&lt;font style=&quot;font-size: 10px;&quot;&gt;assigned to&lt;/font&gt;" style="text;html=1;strokeColor=none;fillColor=none;align=center;verticalAlign=middle;whiteSpace=wrap;rounded=0;" vertex="1" parent="9daL2sqV7IDUxvltfh16-144">
          <mxGeometry x="103" y="102" width="60" height="20" as="geometry" />
        </mxCell>
        <mxCell id="9daL2sqV7IDUxvltfh16-167" value="" style="endArrow=classic;html=1;rounded=0;dashed=1;dashPattern=12 12;entryX=1;entryY=0.5;entryDx=0;entryDy=0;" edge="1" parent="1">
          <mxGeometry width="50" height="50" relative="1" as="geometry">
            <mxPoint x="920" y="417" as="sourcePoint" />
            <mxPoint x="590.0000000000002" y="417" as="targetPoint" />
          </mxGeometry>
        </mxCell>
        <mxCell id="9daL2sqV7IDUxvltfh16-169" value="" style="endArrow=classic;html=1;rounded=0;entryX=0.5;entryY=0;entryDx=0;entryDy=0;" edge="1" parent="1" target="9daL2sqV7IDUxvltfh16-129">
          <mxGeometry width="50" height="50" relative="1" as="geometry">
            <mxPoint x="530" y="440" as="sourcePoint" />
            <mxPoint x="610" y="260" as="targetPoint" />
          </mxGeometry>
        </mxCell>
        <mxCell id="rYG1cHND-IJR0_YZzrXD-6" value="" style="endArrow=none;html=1;rounded=0;" edge="1" parent="1">
          <mxGeometry width="50" height="50" relative="1" as="geometry">
            <mxPoint x="260" y="510" as="sourcePoint" />
            <mxPoint x="450" y="510" as="targetPoint" />
          </mxGeometry>
        </mxCell>
        <mxCell id="rYG1cHND-IJR0_YZzrXD-8" value="" style="endArrow=none;html=1;rounded=0;entryX=0;entryY=0.5;entryDx=0;entryDy=0;" edge="1" parent="1" target="9daL2sqV7IDUxvltfh16-128">
          <mxGeometry width="50" height="50" relative="1" as="geometry">
            <mxPoint x="610" y="990" as="sourcePoint" />
            <mxPoint x="530" y="940" as="targetPoint" />
          </mxGeometry>
        </mxCell>
        <mxCell id="rYG1cHND-IJR0_YZzrXD-9" value="" style="group" vertex="1" connectable="0" parent="1">
          <mxGeometry x="260" y="400" width="190" height="100" as="geometry" />
        </mxCell>
        <mxCell id="9daL2sqV7IDUxvltfh16-89" value="&lt;b&gt;Support: (+)&lt;br&gt;Solution Space:&lt;/b&gt;&amp;nbsp;&lt;br&gt;&amp;nbsp;- Separated or integrated HF workstream" style="shape=note;whiteSpace=wrap;html=1;backgroundOutline=1;darkOpacity=0.05;size=30;align=left;fillColor=#6BBD1A;strokeColor=#2D7600;fontColor=#ffffff;" vertex="1" parent="rYG1cHND-IJR0_YZzrXD-9">
          <mxGeometry x="10" y="30" width="180" height="70" as="geometry" />
        </mxCell>
        <mxCell id="9daL2sqV7IDUxvltfh16-100" value="(P7) clarity positively impacts&amp;nbsp;" style="text;html=1;align=center;verticalAlign=middle;resizable=0;points=[];autosize=1;strokeColor=none;fillColor=none;" vertex="1" parent="rYG1cHND-IJR0_YZzrXD-9">
          <mxGeometry y="4" width="180" height="30" as="geometry" />
        </mxCell>
        <mxCell id="rYG1cHND-IJR0_YZzrXD-10" value="" style="group" vertex="1" connectable="0" parent="1">
          <mxGeometry x="195" y="620" width="200" height="98" as="geometry" />
        </mxCell>
        <mxCell id="9daL2sqV7IDUxvltfh16-103" value="(P8) positively impacts" style="text;html=1;align=center;verticalAlign=middle;resizable=0;points=[];autosize=1;strokeColor=none;fillColor=none;" vertex="1" parent="rYG1cHND-IJR0_YZzrXD-10">
          <mxGeometry x="1" y="2" width="140" height="30" as="geometry" />
        </mxCell>
        <mxCell id="9daL2sqV7IDUxvltfh16-104" value="&lt;b&gt;Support: (+)&lt;br&gt;Solution Space:&lt;br&gt;&amp;nbsp;&lt;/b&gt;&amp;nbsp;- Explicit plan for HF or not end note" style="shape=note;whiteSpace=wrap;html=1;backgroundOutline=1;darkOpacity=0.05;size=30;align=left;fillColor=#6BBD1A;strokeColor=#2D7600;fontColor=#ffffff;" vertex="1" parent="rYG1cHND-IJR0_YZzrXD-10">
          <mxGeometry x="10" y="28" width="190" height="70" as="geometry" />
        </mxCell>
        <mxCell id="rYG1cHND-IJR0_YZzrXD-11" value="" style="group" vertex="1" connectable="0" parent="1">
          <mxGeometry x="288" y="871" width="206" height="110" as="geometry" />
        </mxCell>
        <mxCell id="9daL2sqV7IDUxvltfh16-97" value="&lt;b style=&quot;border-color: var(--border-color); caret-color: rgb(255, 255, 255);&quot;&gt;Support: (+)&lt;br style=&quot;border-color: var(--border-color);&quot;&gt;Solution Space:&lt;br style=&quot;border-color: var(--border-color);&quot;&gt;&amp;nbsp;-&amp;nbsp;&lt;/b&gt;&amp;nbsp;rely on agile methods&lt;div style=&quot;border-color: var(--border-color); caret-color: rgb(255, 255, 255);&quot;&gt;&amp;nbsp; - more than one lifecycle model&lt;/div&gt;&lt;div style=&quot;border-color: var(--border-color); caret-color: rgb(255, 255, 255);&quot;&gt;&amp;nbsp; - short sprints vs long iterations&lt;/div&gt;" style="shape=note;whiteSpace=wrap;html=1;backgroundOutline=1;darkOpacity=0.05;size=30;align=left;fillColor=#60a917;strokeColor=#2D7600;fontColor=#ffffff;" vertex="1" parent="rYG1cHND-IJR0_YZzrXD-11">
          <mxGeometry y="30" width="206" height="80" as="geometry" />
        </mxCell>
        <mxCell id="9daL2sqV7IDUxvltfh16-101" value="(P6) strength positively impacts" style="text;html=1;align=center;verticalAlign=middle;resizable=0;points=[];autosize=1;strokeColor=none;fillColor=none;" vertex="1" parent="rYG1cHND-IJR0_YZzrXD-11">
          <mxGeometry x="-9" y="3" width="190" height="30" as="geometry" />
        </mxCell>
        <mxCell id="rYG1cHND-IJR0_YZzrXD-12" value="" style="group" vertex="1" connectable="0" parent="1">
          <mxGeometry x="673" y="861" width="287" height="120" as="geometry" />
        </mxCell>
        <mxCell id="9daL2sqV7IDUxvltfh16-139" value="&lt;b style=&quot;border-color: var(--border-color);&quot;&gt;Support: +/-&lt;br style=&quot;border-color: var(--border-color);&quot;&gt;Solution Space: &lt;br&gt;&amp;nbsp; - &lt;/b&gt;&lt;span style=&quot;border-color: var(--border-color);&quot;&gt;Decompose top-down&lt;div&gt;&amp;nbsp; - HF requirements on the highest level decomposed into system requirements&lt;/div&gt;&lt;div&gt;&amp;nbsp; - Treat as emergent property&amp;nbsp;&lt;/div&gt;&lt;/span&gt;" style="shape=note;whiteSpace=wrap;html=1;backgroundOutline=1;darkOpacity=0.05;size=30;align=left;fillColor=#fff2cc;strokeColor=#d6b656;" vertex="1" parent="rYG1cHND-IJR0_YZzrXD-12">
          <mxGeometry y="30" width="287" height="90" as="geometry" />
        </mxCell>
        <mxCell id="9daL2sqV7IDUxvltfh16-143" value="(P5) positively impacts" style="text;html=1;align=center;verticalAlign=middle;resizable=0;points=[];autosize=1;strokeColor=none;fillColor=none;" vertex="1" parent="rYG1cHND-IJR0_YZzrXD-12">
          <mxGeometry x="-9" y="4" width="140" height="30" as="geometry" />
        </mxCell>
        <mxCell id="rYG1cHND-IJR0_YZzrXD-13" value="" style="group" vertex="1" connectable="0" parent="1">
          <mxGeometry x="687" y="700" width="270" height="108" as="geometry" />
        </mxCell>
        <mxCell id="9daL2sqV7IDUxvltfh16-136" value="&lt;b style=&quot;border-color: var(--border-color);&quot;&gt;Support: +/-&lt;br style=&quot;border-color: var(--border-color);&quot;&gt;Solution Space:&lt;br style=&quot;border-color: var(--border-color);&quot;&gt;&amp;nbsp;&lt;/b&gt;&lt;span style=&quot;border-color: var(--border-color);&quot;&gt; - P&lt;/span&gt;rovide specific traceability model for HF&lt;div style=&quot;border-color: var(--border-color);&quot;&gt;&amp;nbsp; - Integrated in general traceability model&lt;/div&gt;&lt;div style=&quot;border-color: var(--border-color);&quot;&gt;&amp;nbsp; - Do not use traceability for product development&lt;/div&gt;" style="shape=note;whiteSpace=wrap;html=1;backgroundOutline=1;darkOpacity=0.05;size=30;align=left;fillColor=#fff2cc;strokeColor=#d6b656;" vertex="1" parent="rYG1cHND-IJR0_YZzrXD-13">
          <mxGeometry y="28" width="270" height="80" as="geometry" />
        </mxCell>
        <mxCell id="9daL2sqV7IDUxvltfh16-141" value="(P4) clarity positively impacts" style="text;html=1;align=center;verticalAlign=middle;resizable=0;points=[];autosize=1;strokeColor=none;fillColor=none;" vertex="1" parent="rYG1cHND-IJR0_YZzrXD-13">
          <mxGeometry x="-10" width="180" height="30" as="geometry" />
        </mxCell>
        <mxCell id="rYG1cHND-IJR0_YZzrXD-14" value="" style="group" vertex="1" connectable="0" parent="1">
          <mxGeometry x="740" y="565" width="191" height="101" as="geometry" />
        </mxCell>
        <mxCell id="9daL2sqV7IDUxvltfh16-127" value="&lt;b&gt;Support: (+)&lt;br&gt;Solution Space:&lt;br&gt;&amp;nbsp; - S&lt;/b&gt;pecialized structure for HF req&lt;div&gt;&amp;nbsp; - Generic req structure&lt;/div&gt;&lt;div&gt;&amp;nbsp; - Labeling of HF req&lt;/div&gt;" style="shape=note;whiteSpace=wrap;html=1;backgroundOutline=1;darkOpacity=0.05;size=30;align=left;fillColor=#6BBD1A;strokeColor=#2D7600;fontColor=#ffffff;" vertex="1" parent="rYG1cHND-IJR0_YZzrXD-14">
          <mxGeometry x="1" y="31" width="190" height="70" as="geometry" />
        </mxCell>
        <mxCell id="9daL2sqV7IDUxvltfh16-140" value="(P3) clarity positively impacts" style="text;html=1;align=center;verticalAlign=middle;resizable=0;points=[];autosize=1;strokeColor=none;fillColor=none;" vertex="1" parent="rYG1cHND-IJR0_YZzrXD-14">
          <mxGeometry x="-8" y="4" width="180" height="30" as="geometry" />
        </mxCell>
        <mxCell id="rYG1cHND-IJR0_YZzrXD-15" value="" style="group" vertex="1" connectable="0" parent="1">
          <mxGeometry x="530" y="465" width="190" height="100" as="geometry" />
        </mxCell>
        <mxCell id="9daL2sqV7IDUxvltfh16-5" value="&lt;b&gt;Support: (+)&lt;br&gt;Solution Space:&lt;br&gt;&amp;nbsp; -&amp;nbsp;&lt;/b&gt;&amp;nbsp;Generic responsibilities&lt;div&gt;&amp;nbsp; - Tailored to projects&lt;/div&gt;&lt;div&gt;&amp;nbsp; - Default ownership&lt;/div&gt;" style="shape=note;whiteSpace=wrap;html=1;backgroundOutline=1;darkOpacity=0.05;size=30;align=left;fillColor=#6BBD1A;strokeColor=#2D7600;fontColor=#ffffff;" vertex="1" parent="rYG1cHND-IJR0_YZzrXD-15">
          <mxGeometry y="30" width="190" height="70" as="geometry" />
        </mxCell>
        <mxCell id="9daL2sqV7IDUxvltfh16-33" value="(P1) clarity positively impacts" style="text;html=1;align=center;verticalAlign=middle;resizable=0;points=[];autosize=1;strokeColor=none;fillColor=none;" vertex="1" parent="rYG1cHND-IJR0_YZzrXD-15">
          <mxGeometry x="-7" width="180" height="30" as="geometry" />
        </mxCell>
        <mxCell id="rYG1cHND-IJR0_YZzrXD-16" value="" style="group" vertex="1" connectable="0" parent="1">
          <mxGeometry x="650" y="301" width="180" height="110" as="geometry" />
        </mxCell>
        <mxCell id="9daL2sqV7IDUxvltfh16-27" value="&lt;b style=&quot;border-color: var(--border-color);&quot;&gt;Support: +/-&lt;br style=&quot;border-color: var(--border-color);&quot;&gt;Solution Space:&lt;br style=&quot;border-color: var(--border-color);&quot;&gt;&amp;nbsp;&lt;/b&gt;&lt;span style=&quot;border-color: var(--border-color);&quot;&gt; - assign to critical roles&lt;div&gt;&amp;nbsp; - assign to supporting roles&lt;/div&gt;&lt;div&gt;&amp;nbsp; - everybody&#39;s responsibility&lt;/div&gt;&lt;/span&gt;" style="shape=note;whiteSpace=wrap;html=1;backgroundOutline=1;darkOpacity=0.05;size=30;align=left;fillColor=#fff2cc;strokeColor=#d6b656;" vertex="1" parent="rYG1cHND-IJR0_YZzrXD-16">
          <mxGeometry y="30" width="180" height="80" as="geometry" />
        </mxCell>
        <mxCell id="9daL2sqV7IDUxvltfh16-34" value="(P2) required" style="text;html=1;align=center;verticalAlign=middle;resizable=0;points=[];autosize=1;strokeColor=none;fillColor=none;" vertex="1" parent="rYG1cHND-IJR0_YZzrXD-16">
          <mxGeometry x="-7" y="4" width="90" height="30" as="geometry" />
        </mxCell>
        <mxCell id="rYG1cHND-IJR0_YZzrXD-17" value="" style="endArrow=none;html=1;rounded=0;" edge="1" parent="1">
          <mxGeometry width="50" height="50" relative="1" as="geometry">
            <mxPoint x="260" y="990" as="sourcePoint" />
            <mxPoint x="540" y="990" as="targetPoint" />
          </mxGeometry>
        </mxCell>
        <mxCell id="P1D013BhUKZ3-myYgXIo-1" value="&amp;nbsp; &amp;nbsp; &amp;nbsp; Lifecycle" style="swimlane;whiteSpace=wrap;html=1;align=left;fillColor=#dae8fc;strokeColor=#6c8ebf;" vertex="1" parent="1">
          <mxGeometry x="60" y="810" width="200" height="210" as="geometry">
            <mxRectangle x="530" y="180" width="50" height="40" as="alternateBounds" />
          </mxGeometry>
        </mxCell>
        <mxCell id="P1D013BhUKZ3-myYgXIo-2" value="Life Cycle Model for HF Req" style="rounded=0;whiteSpace=wrap;html=1;fillColor=#dae8fc;strokeColor=#6c8ebf;" vertex="1" parent="P1D013BhUKZ3-myYgXIo-1">
          <mxGeometry x="40" y="30" width="120" height="60" as="geometry" />
        </mxCell>
        <mxCell id="P1D013BhUKZ3-myYgXIo-3" value="Information and Knowledge flow" style="rounded=0;whiteSpace=wrap;html=1;fillColor=#dae8fc;strokeColor=#6c8ebf;" vertex="1" parent="P1D013BhUKZ3-myYgXIo-1">
          <mxGeometry x="40" y="140" width="120" height="60" as="geometry" />
        </mxCell>
        <mxCell id="P1D013BhUKZ3-myYgXIo-4" value="" style="endArrow=classic;html=1;rounded=0;exitX=0.5;exitY=1;exitDx=0;exitDy=0;entryX=0.5;entryY=0;entryDx=0;entryDy=0;" edge="1" parent="P1D013BhUKZ3-myYgXIo-1" source="P1D013BhUKZ3-myYgXIo-2" target="P1D013BhUKZ3-myYgXIo-3">
          <mxGeometry width="50" height="50" relative="1" as="geometry">
            <mxPoint x="80" y="200" as="sourcePoint" />
            <mxPoint x="130" y="150" as="targetPoint" />
          </mxGeometry>
        </mxCell>
        <mxCell id="P1D013BhUKZ3-myYgXIo-5" value="&lt;font style=&quot;font-size: 10px;&quot;&gt;affects&lt;/font&gt;" style="text;html=1;strokeColor=none;fillColor=none;align=center;verticalAlign=middle;whiteSpace=wrap;rounded=0;" vertex="1" parent="P1D013BhUKZ3-myYgXIo-1">
          <mxGeometry x="93" y="102" width="60" height="20" as="geometry" />
        </mxCell>
      </root>
    </mxGraphModel>
  </diagram>
  <diagram id="PTJUF0VBEICRv5wSJlMG" name="Page-3">
    <mxGraphModel dx="1397" dy="802" grid="1" gridSize="10" guides="1" tooltips="1" connect="1" arrows="1" fold="1" page="1" pageScale="1" pageWidth="1169" pageHeight="827" math="0" shadow="0">
      <root>
        <mxCell id="0" />
        <mxCell id="1" parent="0" />
      </root>
    </mxGraphModel>
  </diagram>
</mxfile>
